<svg xmlns="http://www.w3.org/2000/svg" width="1007.612" height="994.533" viewBox="0 0 1007.612 994.533"><defs><style>.a{fill:#64f440;}.a,.b{opacity:0.42;}.b,.c{fill:#b8ccff;}.d{fill:#93805f;}.e{fill:#c5bba6;}.f{fill:#f1e8d6;}.g{fill:#f8f3e9;}.h{fill:#c8bfaa;}.i{fill:#f8f1e1;}.j{fill:#e4d4ba;}.k{fill:#e2d9c5;}.l{fill:#fbf4e4;}.m{fill:#edd08a;}.n{fill:#ffe7a4;}.o{fill:#b99f6f;}.p{fill:#e7dab8;}.q{fill:#dbc082;}.r{fill:#a38c6a;}.s{fill:#bfaf90;}.t{fill:#aa693c;}.u,.x{fill:#fff;}.u,.v{stroke:#000;stroke-miterlimit:10;opacity:0.11;}.v{fill:none;}.w{fill:#c1a368;}</style></defs><g transform="translate(-81 -38)"><circle class="a" cx="11.564" cy="11.564" r="11.564" transform="translate(957.239 869.481)"/><circle class="a" cx="11.564" cy="11.564" r="11.564" transform="translate(1050.904 869.481)"/><circle class="a" cx="11.564" cy="11.564" r="11.564" transform="translate(1050.904 922.674)"/><circle class="a" cx="11.564" cy="11.564" r="11.564" transform="translate(957.239 922.674)"/><circle class="a" cx="11.564" cy="11.564" r="11.564" transform="translate(957.239 763.707)"/><circle class="a" cx="11.564" cy="11.564" r="11.564" transform="translate(1050.904 763.707)"/><circle class="a" cx="11.564" cy="11.564" r="11.564" transform="translate(1050.904 816.9)"/><circle class="a" cx="11.564" cy="11.564" r="11.564" transform="translate(957.239 816.9)"/><ellipse class="b" cx="202.219" cy="201.47" rx="202.219" ry="201.47" transform="translate(424.023 251.643)"/><circle class="a" cx="201.47" cy="201.47" r="201.47" transform="translate(81 555.72)"/><ellipse class="b" cx="92.871" cy="92.122" rx="92.871" ry="92.122" transform="translate(871.9 671.06)"/><rect class="c" width="17.629" height="436.318" transform="translate(186.733 412.821) rotate(-33.177)"/><rect class="c" width="17.629" height="436.318" transform="translate(222.543 389.493) rotate(-33.177)"/><rect class="c" width="17.629" height="436.318" transform="translate(259.431 365.375) rotate(-33.177)"/><rect class="c" width="17.629" height="436.318" transform="translate(294.689 343.339) rotate(-33.177)"/><path class="c" d="M627.144,197.274S856.31,290.99,755.329,432.921s-322.447,242.623-389.638,127.2S350.827,311.669,488.241,254.65s112.7-66.673,137.414-57.019" transform="translate(307.582 188.2)"/><path class="d" d="M536.439,357l116.792,66.109-33.054,24.24L391,357Z" transform="translate(373.124 383.956)"/><path class="e" d="M305.24,38l8.814,299.693L281,342.1Z" transform="translate(240.725 0)"/><path class="f" d="M324.053,342.1l-24.238-4.407L291,38Z" transform="translate(252.761 0)"/><path class="g" d="M345.718,181.814,273,192.833l17.629-13.222L321.48,173l24.24,6.611Z" transform="translate(231.096 162.489)"/><path class="h" d="M346.114,184.159,271,195.833v-8.814L345.923,176Z" transform="translate(228.689 166.1)"/><path class="i" d="M305,176l28.647,22.036v6.611L305,184.138Z" transform="translate(269.612 166.1)"/><path class="j" d="M334.851,200.2l-8.815,2.2L304,186.98l2.2-7.287Z" transform="translate(268.408 170.545)"/><path class="j" d="M343.72,186.98l-66.109,8.815L271,191.388l74.923-11.694Z" transform="translate(228.689 170.545)"/><path class="k" d="M340.109,182v48.326L274,237.091V193.018Z" transform="translate(232.299 173.322)"/><path class="l" d="M326.036,199.629v41.129L304,230.326V182Z" transform="translate(268.408 173.322)"/><path class="k" d="M347.479,202.17v57.08l-78.084,7.99V215.184Z" transform="translate(226.757 197.599)"/><path class="k" d="M363.3,230.17v167.1l-104.9,11.018V248.165Z" transform="translate(213.517 231.3)"/><path class="l" d="M330.857,222.992v48.58L304.829,259.25V202.17Z" transform="translate(269.406 197.599)"/><path class="l" d="M344.531,258.131v72.235l-38.7-18.322V227.17Z" transform="translate(270.61 227.689)"/><g transform="translate(486.467 388.376)"><path class="h" d="M354.555,206.727,265,220.645V210.136L354.327,197Z" transform="translate(-265 -197)"/><path class="i" d="M305.536,197l34.154,21.018V225.9l-34.154-19.2Z" transform="translate(-216.21 -197)"/><path class="j" d="M341.126,220.6l-7.882,4.283-28.9-14.792,2.627-8.688Z" transform="translate(-217.645 -191.7)"/><path class="j" d="M351.7,210.091,272.882,220.6,265,215.346,354.327,201.4Z" transform="translate(-265 -191.7)"/></g><g transform="translate(248.61 562.463)"><path class="m" d="M495.788,381.2,383.393,322.247l-.728,356.259,45.835,2.386L427.476,398.1h52.911Z" transform="translate(114.482 -220.336)"/><path class="m" d="M158.875,407.389a4.645,4.645,0,0,0,2.84,8.321h32.673l-2.2,237.991,39.665,2.2-.187-329.373Z" transform="translate(-157.061 -215.18)"/><path class="n" d="M411.489,276,259.415,315.665l-68.5,76.094V716.577l422.545,22,.728-356.259Z" transform="translate(-116.314 -276)"/></g><g transform="translate(462.227 441.263)"><path class="h" d="M373.29,233.957,254,252.5v-14L372.987,221Z" transform="translate(-254 -221)"/><path class="i" d="M308,221l45.495,28v10.5L308,233.924Z" transform="translate(-189.009 -221)"/><path class="j" d="M355.4,252.436l-10.5,5.706-38.5-19.7,3.5-11.573Z" transform="translate(-190.921 -213.941)"/><path class="j" d="M369.487,238.438l-104.988,14-10.5-7,118.987-18.572Z" transform="translate(-254 -213.941)"/></g><path class="o" d="M401.835,264.669v60.058L164.89,488.866a4.654,4.654,0,0,1-2.239.573h-29a4.646,4.646,0,0,1-4.645-4.645V456.741a4.649,4.649,0,0,1,2.358-4.044Z" transform="translate(57.787 272.824)"/><rect class="l" width="14.979" height="61.415" transform="translate(459.973 536.247)"/><path class="p" d="M162.847,457.219h0a4.649,4.649,0,0,0,2.47-.595L395.547,292H384.529l-240.2,163.068C140.207,457.331,158.142,457.027,162.847,457.219Z" transform="translate(75.494 305.721)"/><path class="k" d="M391.51,307l59.381,40.767.117,347.071L235.053,683.82l8.814-328.34,42.739-37.462" transform="translate(185.422 323.775)"/><path class="q" d="M402.535,356.669l212.572,82.263v121.2L403.559,639.462" transform="translate(387.008 383.558)"/><path class="r" d="M453,336l125.607,98.294v14.091L461.814,382.276Z" transform="translate(447.748 358.68)"/><path class="s" d="M307.459,326.535,351.649,321l51.809,38.749V677.987L247,671.376l13.222-301.192Z" transform="translate(199.802 340.626)"/><path class="t" d="M301.441,332.827l44.19-5.636,38.587,30.986V672.74L252,663.337,260.814,369.4Z" transform="translate(205.82 348.077)"/><path class="s" d="M319.151,404.24v-152.4L274,258.072l.961,151.7" transform="translate(232.299 257.386)"/><path class="o" d="M291.011,254.669v60.057L590.7,479.439l66.084.729-8.815-46.276Z" transform="translate(252.774 260.788)"/><line class="u" y1="4.494" x2="28.46" transform="translate(512.4 570.7)"/><line class="u" y1="4.494" x2="28.46" transform="translate(512.4 578.189)"/><line class="u" y1="4.494" x2="28.46" transform="translate(512.4 584.181)"/><path class="v" d="M305.647,354.007V289L277,293.407v63.457" transform="translate(235.91 302.11)"/><path class="w" d="M417.636,366.836,423.6,626.815h21.28l-.818-270.624Z" transform="translate(405.183 382.983)"/><path class="w" d="M437.636,375.968l5.209,221.412h22.036L464.063,366Z" transform="translate(429.256 394.789)"/><path class="w" d="M456.636,382.449,461,570.122h18.472L478.789,374Z" transform="translate(452.125 404.418)"/><path class="w" d="M471.636,386.595,476,555.29h18.472L493.789,379Z" transform="translate(470.179 410.436)"/><path class="w" d="M484.636,391.551,489,537.05h18.472L506.789,385Z" transform="translate(485.826 417.658)"/><path class="w" d="M496.636,396.506,501,518.81h18.472L518.789,391Z" transform="translate(500.27 424.879)"/><circle class="x" cx="11.564" cy="11.564" r="11.564" transform="translate(876.508 561.764)"/><circle class="x" cx="11.564" cy="11.564" r="11.564" transform="translate(970.173 561.764)"/><circle class="x" cx="11.564" cy="11.564" r="11.564" transform="translate(970.173 614.957)"/><circle class="x" cx="11.564" cy="11.564" r="11.564" transform="translate(876.508 614.957)"/><circle class="x" cx="11.564" cy="11.564" r="11.564" transform="translate(1061.613 561.764)"/><circle class="x" cx="11.564" cy="11.564" r="11.564" transform="translate(888.639 1009.406)"/><circle class="x" cx="11.564" cy="11.564" r="11.564" transform="translate(1061.613 614.957)"/><circle class="x" cx="11.564" cy="11.564" r="11.564" transform="translate(876.508 455.99)"/><circle class="x" cx="11.564" cy="11.564" r="11.564" transform="translate(970.173 455.99)"/><circle class="x" cx="11.564" cy="11.564" r="11.564" transform="translate(970.173 509.183)"/><circle class="x" cx="11.564" cy="11.564" r="11.564" transform="translate(876.508 509.183)"/><circle class="a" cx="11.564" cy="11.564" r="11.564" transform="translate(715.644 350.522)"/><circle class="x" cx="11.564" cy="11.564" r="11.564" transform="translate(1061.613 455.99)"/><circle class="x" cx="11.564" cy="11.564" r="11.564" transform="translate(1061.613 509.183)"/></g></svg>