<svg xmlns="http://www.w3.org/2000/svg" width="345.448" height="190.247" viewBox="0 0 345.448 190.247"><defs><style>.a{fill:#fff;}</style></defs><g transform="translate(-1267 -94.4)"><g transform="translate(2846.061 -343.894)"><g transform="translate(-1579.061 550.894)"><path class="a" d="M1228.085,628.626h-1.266c-.005-.239-.016-.477-.016-.716q0-38.1,0-76.193c0-.239.011-.477.016-.716h1.266a2.533,2.533,0,0,0,.286.064,24.6,24.6,0,0,1,6.441,1.615,15.378,15.378,0,0,1,5.294,3.221.577.577,0,0,0,.88.1,30.113,30.113,0,0,1,12.311-4.682c.874-.129,1.755-.211,2.632-.314h3.966c.431.051.862.106,1.294.151a30.578,30.578,0,0,1,10.956,3.287,31.637,31.637,0,0,1,8.636,6.59c.365.391.384.386.756,0,.811-.838,1.627-1.671,2.512-2.432a31.015,31.015,0,0,1,15.2-7.194c1.052-.182,2.118-.248,3.172-.4h4.05c.767.089,1.537.157,2.3.27a31.1,31.1,0,0,1,26.327,25.622c.177,1.04.244,2.092.4,3.133q0,24.111.008,48.221c0,.316-.069.42-.388.386a8.375,8.375,0,0,0-.885-.007,2,2,0,0,0-.625-.072c-.912-.053-1.826-.079-2.734-.169a11.771,11.771,0,0,1-10.569-10.017,40.416,40.416,0,0,1-.343-5.972q-.018-10.441,0-20.882c.012-3.8-.032-7.591-.343-11.376a12.863,12.863,0,0,0-1.5-5.45,15.3,15.3,0,0,0-13.42-8.126,14.319,14.319,0,0,0-7.952,2.024,14.165,14.165,0,0,0-7.158,9.794,43.215,43.215,0,0,0-.627,8.019c-.042,13.823-.019,27.646-.02,41.469,0,.253-.01.506-.016.759h-1.266a2,2,0,0,0-.625-.072c-.9-.052-1.8-.075-2.692-.166a11.858,11.858,0,0,1-10.54-9.625,32.212,32.212,0,0,1-.408-5.965c-.031-6.4-.01-12.8-.012-19.193,0-4.034.077-8.069-.247-12.1a20.337,20.337,0,0,0-.8-4.687,15.226,15.226,0,0,0-16.968-10.063,14.954,14.954,0,0,0-8.1,4.048,13.791,13.791,0,0,0-4.256,7.551,45.65,45.65,0,0,0-.625,7.977c-.054,8.745-.017,17.491-.023,26.237a50.539,50.539,0,0,1-.268,5.345,11.365,11.365,0,0,1-3.6,7.334,12.3,12.3,0,0,1-7.965,3.22C1229.708,628.518,1228.892,628.51,1228.085,628.626Z" transform="translate(-990.055 -550.991)"/><path class="a" d="M-1501.43,628.528h-59.485a1.869,1.869,0,0,0-.624-.072c-.9-.052-1.8-.075-2.692-.165a11.765,11.765,0,0,1-10.486-9.312,40.48,40.48,0,0,1-.468-5.242,1.5,1.5,0,0,1,.512-1.3q22.742-22.714,45.462-45.45c.143-.143.335-.254.4-.5a1.546,1.546,0,0,0-.626-.049c-12.54-.1-25.081.209-37.619-.172a11.666,11.666,0,0,1-4.927-1.175c-4.383-2.2-6.568-5.837-6.921-10.664a21.243,21.243,0,0,0-.149-2.183c0-.394.009-.788,0-1.181-.005-.147.026-.2.174-.171a1.186,1.186,0,0,0,.21,0h59.105a1.834,1.834,0,0,0,.581.07c.982.056,1.967.084,2.945.177a11.663,11.663,0,0,1,10.164,8.711,36.791,36.791,0,0,1,.581,5.863,1.451,1.451,0,0,1-.5,1.256q-20.982,20.957-41.946,41.932-1.819,1.82-3.637,3.641c-.109.11-.275.194-.273.435h.6q16.873,0,33.747,0a38.722,38.722,0,0,1,4.966.26,11.571,11.571,0,0,1,10.074,8.066C-1501.431,623.649-1501.53,626.1-1501.43,628.528Z" transform="translate(1579.061 -550.893)"/><path class="a" d="M-664.2,628.626h-4.388a3.121,3.121,0,0,0-.372-.064,30.455,30.455,0,0,1-3.684-.414,38.1,38.1,0,0,1-26.921-18.159,37.877,37.877,0,0,1-5.582-22.728,37.686,37.686,0,0,1,1.849-9.62,38.234,38.234,0,0,1,12.167-17.789,38.316,38.316,0,0,1,19.613-8.535c.973-.132,1.953-.213,2.929-.318h4.388a3.228,3.228,0,0,0,.372.064,35.178,35.178,0,0,1,7.109,1.123,38.193,38.193,0,0,1,24.811,19.75,37.785,37.785,0,0,1,4.185,21.426,37.953,37.953,0,0,1-3.919,13.833,38.332,38.332,0,0,1-15.567,16.39,38.036,38.036,0,0,1-14.147,4.727C-662.3,628.434-663.253,628.522-664.2,628.626Zm21.017-38.79a23.126,23.126,0,0,0-23-23.221,23.248,23.248,0,0,0-23.4,23.176,23.255,23.255,0,0,0,23.179,23.316A23.164,23.164,0,0,0-643.184,589.836Z" transform="translate(778.958 -550.991)"/><path class="a" d="M301.811,628.626h-4.388c-.628-.059-1.258-.109-1.885-.178a38.658,38.658,0,0,1-14.483-4.5,38.9,38.9,0,0,1-20.19-36.692,37.728,37.728,0,0,1,1.849-9.62,38.815,38.815,0,0,1,31.78-26.324c.973-.132,1.953-.213,2.929-.318h4.388a3.23,3.23,0,0,0,.372.064,35.168,35.168,0,0,1,7.109,1.123,38.192,38.192,0,0,1,24.811,19.75,39.008,39.008,0,0,1,.267,35.259,38.827,38.827,0,0,1-29.714,21.116C303.71,628.434,302.759,628.522,301.811,628.626Zm21.017-38.777a23.206,23.206,0,1,0-23.285,23.259A23.169,23.169,0,0,0,322.828,589.849Z" transform="translate(-105.548 -550.991)"/></g></g><g transform="translate(1297 -522.929)"><path class="a" d="M13.23,0H54.44a37,37,0,0,1,37,37V57.623a10.8,10.8,0,0,1-10.8,10.8H38.23A38.23,38.23,0,0,1,0,30.188V13.23A13.23,13.23,0,0,1,13.23,0Z" transform="translate(81 617.758)"/><path class="a" d="M229,641.029V662.5a10.4,10.4,0,0,0,3.876,8.1l18.084,14.563a4.187,4.187,0,0,0,6.814-3.261V621.355a4.018,4.018,0,0,0-6.441-3.206L233.792,631.4A12.068,12.068,0,0,0,229,641.029Z" transform="translate(-53.366)"/></g></g></svg>